<?xml version="1.0" encoding="UTF-8"?>
<svg xmlns="http://www.w3.org/2000/svg"
     width="500" height="500" viewBox="0 0 500 500"
     role="img" aria-label="Surya Foods logo">
  <title>Surya Foods Logo</title>
  <path d="M 141 386 L 143 387 L 144 389 L 146 390 L 147 389 L 149 389 L 150 391 L 153 391 L 154 392 L 156 392 L 157 391 L 163 391 L 165 392 L 166 391 L 168 391 L 170 389 L 172 390 L 175 387 L 176 387 L 177 385 L 174 382 L 170 382 L 169 380 L 168 381 L 167 379 L 165 380 L 156 380 L 154 379 L 153 381 L 151 380 L 150 382 L 148 382 L 147 381 L 146 382 L 144 382 L 141 385 Z M 123 369 L 123 371 L 127 375 L 128 374 L 129 376 L 131 377 L 133 377 L 134 378 L 135 377 L 137 377 L 139 379 L 141 379 L 142 378 L 145 378 L 146 379 L 148 379 L 150 377 L 154 377 L 154 373 L 152 372 L 150 372 L 146 369 L 145 370 L 144 370 L 142 368 L 141 369 L 139 367 L 137 368 L 135 368 L 134 367 L 126 367 L 125 368 L 124 367 Z M 366 366 L 366 363 L 363 363 L 362 362 L 360 363 L 358 361 L 356 361 L 355 362 L 348 362 L 346 361 L 343 363 L 341 363 L 340 365 L 339 364 L 333 369 L 332 371 L 335 374 L 334 375 L 331 375 L 329 377 L 326 376 L 324 378 L 323 377 L 321 378 L 319 377 L 318 379 L 316 378 L 314 380 L 311 380 L 310 379 L 312 377 L 313 378 L 315 376 L 316 376 L 316 375 L 318 374 L 322 370 L 322 368 L 324 366 L 325 366 L 324 365 L 327 363 L 331 366 L 333 364 L 336 363 L 337 361 L 339 360 L 340 358 L 343 355 L 342 354 L 344 353 L 345 351 L 344 350 L 344 340 L 345 339 L 343 338 L 340 338 L 340 339 L 338 340 L 338 341 L 334 346 L 335 347 L 333 348 L 332 353 L 329 357 L 327 355 L 327 350 L 326 349 L 324 349 L 322 350 L 322 351 L 320 352 L 317 355 L 317 356 L 313 359 L 312 362 L 309 365 L 307 363 L 307 362 L 302 362 L 302 363 L 300 364 L 297 367 L 297 368 L 294 370 L 293 373 L 291 375 L 292 376 L 290 377 L 291 378 L 288 381 L 287 380 L 287 375 L 286 373 L 284 373 L 282 374 L 280 376 L 280 377 L 276 380 L 275 383 L 273 384 L 273 386 L 271 387 L 272 388 L 269 390 L 270 391 L 268 392 L 269 393 L 267 394 L 268 395 L 266 397 L 266 398 L 267 399 L 267 404 L 268 406 L 266 407 L 264 410 L 263 409 L 260 412 L 258 413 L 253 413 L 251 411 L 250 412 L 248 410 L 246 409 L 245 410 L 244 409 L 244 408 L 246 406 L 245 405 L 246 404 L 246 402 L 244 401 L 245 399 L 242 397 L 243 396 L 240 393 L 240 392 L 237 390 L 238 389 L 230 382 L 228 382 L 227 380 L 226 380 L 224 378 L 222 378 L 222 379 L 220 381 L 220 382 L 222 383 L 222 385 L 221 386 L 219 385 L 215 381 L 215 380 L 213 379 L 212 377 L 207 372 L 205 372 L 203 370 L 203 369 L 200 369 L 200 370 L 198 372 L 198 373 L 200 375 L 200 376 L 198 378 L 197 377 L 197 375 L 194 373 L 192 369 L 190 367 L 188 367 L 185 363 L 180 361 L 180 362 L 178 363 L 178 366 L 177 367 L 175 367 L 172 363 L 172 362 L 168 358 L 167 358 L 164 354 L 163 355 L 161 355 L 159 357 L 159 359 L 158 360 L 156 358 L 155 356 L 156 355 L 154 354 L 155 353 L 152 350 L 153 349 L 151 347 L 151 346 L 150 346 L 149 344 L 146 343 L 144 345 L 145 346 L 145 348 L 144 349 L 144 355 L 145 356 L 145 358 L 144 359 L 146 360 L 147 362 L 147 364 L 148 364 L 150 366 L 150 367 L 152 368 L 153 370 L 154 369 L 155 370 L 157 370 L 159 367 L 158 366 L 160 363 L 162 365 L 162 367 L 163 369 L 165 370 L 164 371 L 165 371 L 167 373 L 167 375 L 168 375 L 171 378 L 173 379 L 176 379 L 177 380 L 179 379 L 179 376 L 180 375 L 183 378 L 183 379 L 185 380 L 186 383 L 187 383 L 193 388 L 191 391 L 190 390 L 184 390 L 183 391 L 179 391 L 178 390 L 176 390 L 174 392 L 167 393 L 165 395 L 165 396 L 163 397 L 163 398 L 165 399 L 166 401 L 168 401 L 169 402 L 171 401 L 179 401 L 180 402 L 183 402 L 187 400 L 188 401 L 186 403 L 185 403 L 185 404 L 183 406 L 183 407 L 184 407 L 186 410 L 187 409 L 189 409 L 192 411 L 194 411 L 195 410 L 205 410 L 207 411 L 209 409 L 211 409 L 213 411 L 212 412 L 210 411 L 209 413 L 207 413 L 207 414 L 204 416 L 206 417 L 208 420 L 209 419 L 212 419 L 214 421 L 228 421 L 230 419 L 232 419 L 233 420 L 237 417 L 238 418 L 240 416 L 242 416 L 243 415 L 245 416 L 247 416 L 250 418 L 249 420 L 247 422 L 246 422 L 245 424 L 243 425 L 235 433 L 234 435 L 233 435 L 233 436 L 231 438 L 232 439 L 229 441 L 229 443 L 231 445 L 233 443 L 234 443 L 237 439 L 240 438 L 251 427 L 255 425 L 258 422 L 261 425 L 262 424 L 263 426 L 264 426 L 269 430 L 272 431 L 277 435 L 278 434 L 280 437 L 284 437 L 285 439 L 286 439 L 288 437 L 286 436 L 286 434 L 285 434 L 284 432 L 279 427 L 278 427 L 275 424 L 274 424 L 272 422 L 269 421 L 265 418 L 266 415 L 268 414 L 269 412 L 271 414 L 273 413 L 275 415 L 292 415 L 293 413 L 295 414 L 297 412 L 300 413 L 303 411 L 305 411 L 307 409 L 307 408 L 309 407 L 305 403 L 308 401 L 311 401 L 313 399 L 315 399 L 317 400 L 319 399 L 320 397 L 323 398 L 325 396 L 326 396 L 326 395 L 328 393 L 324 389 L 319 390 L 318 389 L 319 387 L 325 387 L 326 388 L 329 388 L 331 386 L 332 387 L 334 386 L 337 387 L 338 385 L 339 386 L 341 384 L 342 385 L 346 380 L 345 380 L 342 376 L 340 377 L 337 377 L 336 376 L 339 374 L 345 374 L 347 375 L 348 373 L 350 374 L 352 372 L 354 373 L 355 372 L 357 372 L 359 371 L 361 369 L 362 370 L 364 368 L 365 368 Z M 267 421 L 268 420 L 269 421 L 268 422 Z M 215 409 L 216 408 L 217 409 L 216 410 Z M 212 410 L 213 408 L 215 409 L 213 411 Z M 227 408 L 228 407 L 231 409 L 230 410 L 228 410 Z M 214 408 L 215 407 L 216 408 L 215 409 Z M 268 406 L 269 405 L 270 406 L 269 407 Z M 217 407 L 221 405 L 224 405 L 227 407 L 224 409 L 220 409 Z M 302 403 L 303 402 L 304 403 L 303 404 Z M 281 403 L 282 402 L 283 403 L 282 404 Z M 303 402 L 304 401 L 306 402 L 305 403 Z M 295 402 L 296 401 L 297 402 L 296 403 Z M 230 402 L 231 401 L 232 402 L 231 403 Z M 297 401 L 298 400 L 300 401 L 299 402 Z M 275 401 L 276 400 L 277 401 L 276 402 Z M 229 401 L 230 400 L 231 401 L 230 402 Z M 189 401 L 190 400 L 191 401 L 190 402 Z M 190 400 L 191 399 L 193 400 L 192 401 Z M 194 399 L 195 398 L 196 399 L 195 400 Z M 286 401 L 286 400 L 290 397 L 291 397 L 292 399 L 294 399 L 295 400 L 294 401 L 288 401 L 287 402 Z M 277 398 L 278 397 L 280 398 L 279 399 Z M 206 398 L 207 397 L 208 398 L 207 399 Z M 195 398 L 196 397 L 197 398 L 196 399 Z M 198 398 L 199 396 L 201 396 L 202 395 L 206 397 L 204 399 L 202 399 L 201 398 L 199 399 Z M 212 395 L 213 394 L 214 395 L 213 396 Z M 198 395 L 199 394 L 200 395 L 199 396 Z M 223 392 L 224 392 L 225 393 L 224 394 L 226 395 L 229 398 L 230 400 L 228 402 L 227 402 L 225 400 L 223 400 L 219 398 L 220 397 L 222 397 L 222 393 Z M 285 388 L 289 392 L 286 395 L 285 395 L 281 398 L 280 396 L 284 391 L 284 389 Z M 313 388 L 314 387 L 315 388 L 314 389 Z M 285 388 L 286 387 L 287 388 L 286 389 Z M 220 388 L 221 387 L 222 388 L 221 389 Z M 193 388 L 194 387 L 195 388 L 194 389 Z M 219 386 L 220 385 L 221 386 L 220 387 Z M 200 387 L 202 385 L 203 385 L 205 387 L 205 388 L 206 388 L 208 390 L 208 391 L 211 393 L 211 394 L 209 395 L 203 392 L 202 390 L 200 389 Z M 286 383 L 287 382 L 288 384 L 287 385 Z M 199 380 L 201 379 L 202 381 L 201 382 Z M 199 378 L 200 377 L 201 378 L 200 379 Z M 307 374 L 308 375 L 308 377 L 310 379 L 309 382 L 312 385 L 312 387 L 311 388 L 309 388 L 308 387 L 307 389 L 305 388 L 303 390 L 302 389 L 302 387 L 300 387 L 299 386 L 300 385 L 300 383 L 302 381 L 303 381 L 302 380 L 304 378 L 305 378 L 304 377 Z M 180 375 L 181 374 L 182 375 L 181 376 Z M 335 374 L 336 373 L 337 374 L 336 375 Z M 178 373 L 180 372 L 181 374 L 180 375 Z M 306 372 L 307 371 L 308 372 L 307 373 Z M 177 372 L 178 371 L 179 372 L 178 373 Z M 176 368 L 177 367 L 180 370 L 180 371 L 179 372 L 176 369 Z M 307 368 L 308 366 L 310 367 L 308 369 Z M 325 363 L 326 362 L 327 363 L 326 364 Z M 157 361 L 158 360 L 160 360 L 161 361 L 159 364 Z M 326 360 L 327 359 L 329 361 L 327 362 Z M 327 357 L 328 356 L 330 358 L 330 359 L 328 360 L 327 359 Z M 138 334 L 137 334 L 135 331 L 134 332 L 132 332 L 129 338 L 130 340 L 130 349 L 131 351 L 132 351 L 136 357 L 135 358 L 134 358 L 131 354 L 130 355 L 129 353 L 128 353 L 126 351 L 125 352 L 122 349 L 121 350 L 120 350 L 118 348 L 117 349 L 116 347 L 115 348 L 113 347 L 110 347 L 107 349 L 108 352 L 110 353 L 110 355 L 111 354 L 112 356 L 115 359 L 121 362 L 123 362 L 124 363 L 125 362 L 127 362 L 129 364 L 131 364 L 132 363 L 133 364 L 136 361 L 135 358 L 136 357 L 140 357 L 142 353 L 141 352 L 141 347 L 140 346 L 141 344 L 139 343 L 139 341 L 140 339 L 139 339 L 138 338 L 139 337 L 137 336 Z M 126 314 L 123 315 L 122 318 L 119 321 L 120 322 L 118 324 L 119 325 L 119 327 L 117 330 L 117 331 L 119 333 L 117 336 L 113 332 L 111 332 L 110 330 L 108 330 L 106 328 L 102 326 L 101 327 L 97 327 L 97 329 L 96 330 L 97 332 L 99 333 L 99 335 L 100 335 L 101 337 L 104 339 L 104 340 L 105 339 L 107 342 L 110 343 L 112 345 L 114 344 L 121 344 L 121 342 L 122 341 L 124 342 L 127 339 L 127 335 L 129 333 L 128 331 L 130 328 L 128 324 L 129 323 L 129 320 Z M 120 340 L 121 339 L 122 340 L 121 341 Z M 119 339 L 120 338 L 121 339 L 120 340 Z M 118 336 L 119 335 L 120 336 L 119 337 Z M 121 300 L 119 298 L 119 297 L 118 297 L 115 300 L 115 301 L 113 302 L 113 304 L 111 305 L 112 307 L 110 308 L 109 310 L 110 312 L 108 314 L 102 307 L 100 307 L 99 305 L 96 303 L 92 303 L 91 302 L 90 304 L 90 306 L 89 307 L 91 308 L 92 310 L 92 312 L 94 313 L 94 315 L 95 315 L 98 319 L 99 319 L 105 324 L 108 325 L 113 322 L 115 323 L 117 321 L 117 319 L 119 318 L 120 316 L 119 314 L 121 311 Z M 107 315 L 108 314 L 109 315 L 108 316 Z M 404 296 L 403 297 L 401 296 L 399 298 L 396 299 L 394 302 L 393 301 L 392 303 L 390 304 L 390 305 L 388 307 L 384 309 L 384 311 L 383 312 L 382 311 L 382 302 L 383 300 L 381 297 L 381 295 L 380 295 L 375 289 L 371 293 L 372 294 L 372 304 L 371 306 L 373 308 L 373 311 L 374 312 L 372 313 L 369 310 L 367 310 L 366 309 L 366 310 L 364 311 L 365 312 L 365 314 L 363 315 L 363 318 L 362 319 L 362 321 L 363 322 L 363 332 L 362 333 L 359 330 L 360 327 L 356 323 L 354 324 L 354 325 L 352 327 L 353 328 L 351 329 L 352 331 L 349 335 L 350 337 L 348 338 L 348 340 L 347 341 L 348 342 L 347 344 L 348 346 L 346 347 L 346 349 L 347 349 L 348 350 L 348 352 L 350 353 L 353 351 L 354 352 L 353 354 L 353 356 L 352 357 L 353 357 L 354 359 L 356 359 L 357 358 L 359 359 L 362 359 L 365 357 L 367 358 L 370 356 L 372 356 L 373 354 L 374 355 L 382 349 L 382 348 L 384 346 L 382 344 L 382 343 L 381 344 L 378 344 L 377 343 L 375 343 L 373 345 L 371 345 L 369 344 L 367 347 L 366 346 L 362 348 L 361 350 L 359 349 L 355 352 L 354 351 L 357 345 L 360 342 L 359 340 L 361 339 L 360 337 L 362 333 L 365 336 L 368 336 L 369 337 L 367 338 L 368 338 L 370 340 L 370 341 L 375 341 L 376 339 L 378 340 L 380 339 L 381 337 L 382 338 L 384 337 L 386 335 L 390 333 L 394 329 L 394 328 L 396 326 L 396 324 L 394 321 L 392 321 L 389 323 L 383 323 L 381 325 L 380 324 L 378 326 L 377 326 L 377 327 L 374 330 L 373 330 L 372 329 L 375 326 L 374 325 L 374 320 L 375 319 L 373 317 L 374 316 L 373 315 L 375 314 L 376 316 L 380 316 L 381 314 L 382 315 L 382 319 L 384 321 L 386 319 L 389 319 L 390 317 L 391 318 L 393 316 L 394 316 L 396 314 L 396 313 L 398 311 L 399 311 L 400 309 L 401 309 L 401 308 L 403 306 L 402 305 L 405 303 L 404 302 L 406 300 L 406 299 L 404 297 Z M 368 335 L 369 334 L 370 335 L 369 336 Z M 360 333 L 361 332 L 362 333 L 361 334 Z M 372 314 L 373 313 L 374 314 L 373 315 Z M 373 313 L 374 312 L 375 313 L 374 314 Z M 87 283 L 88 284 L 88 286 L 90 287 L 89 288 L 90 290 L 92 291 L 91 292 L 93 294 L 93 295 L 95 297 L 96 297 L 97 299 L 99 300 L 99 301 L 102 301 L 103 302 L 105 301 L 106 302 L 107 301 L 109 301 L 109 300 L 111 299 L 115 294 L 114 293 L 116 292 L 116 290 L 118 288 L 117 287 L 119 285 L 120 280 L 118 278 L 114 278 L 112 280 L 112 281 L 110 283 L 109 283 L 109 285 L 107 287 L 107 289 L 105 292 L 103 292 L 102 291 L 103 290 L 100 288 L 101 287 L 99 286 L 97 284 L 97 283 L 95 282 L 94 280 L 93 280 L 91 278 L 89 280 L 88 280 Z M 375 272 L 374 274 L 377 278 L 376 281 L 378 283 L 377 284 L 380 288 L 379 289 L 381 290 L 381 291 L 383 293 L 383 295 L 385 296 L 386 295 L 387 296 L 389 294 L 390 296 L 392 297 L 394 296 L 396 296 L 400 292 L 400 291 L 402 289 L 402 287 L 404 286 L 404 284 L 406 283 L 406 281 L 408 279 L 407 278 L 408 275 L 407 273 L 405 272 L 403 273 L 399 277 L 398 277 L 394 281 L 391 287 L 389 285 L 389 284 L 387 283 L 385 277 L 381 273 L 380 273 L 379 271 L 378 272 Z M 389 289 L 390 288 L 391 289 L 390 290 Z M 91 255 L 90 256 L 90 262 L 89 264 L 92 268 L 91 269 L 92 269 L 93 270 L 93 272 L 95 273 L 94 274 L 101 280 L 103 280 L 104 279 L 106 280 L 108 277 L 109 278 L 109 277 L 112 274 L 112 273 L 115 271 L 114 270 L 116 269 L 116 267 L 118 266 L 117 265 L 119 263 L 118 262 L 119 260 L 116 257 L 114 258 L 107 264 L 104 270 L 100 266 L 101 265 L 99 264 L 100 263 L 97 261 L 96 258 L 93 257 L 92 255 Z M 102 270 L 103 269 L 104 270 L 103 271 Z M 405 247 L 403 248 L 396 255 L 397 256 L 395 258 L 394 258 L 395 259 L 392 262 L 393 263 L 392 265 L 389 263 L 390 262 L 387 260 L 388 259 L 387 259 L 386 257 L 382 254 L 382 253 L 380 252 L 377 252 L 376 253 L 377 254 L 377 256 L 376 258 L 377 259 L 377 261 L 378 263 L 380 264 L 379 265 L 382 267 L 381 268 L 382 268 L 389 274 L 391 273 L 392 274 L 395 274 L 399 270 L 400 270 L 400 268 L 405 262 L 404 260 L 406 259 L 405 258 L 407 257 L 406 256 L 407 254 L 406 253 L 407 252 L 407 250 Z M 109 236 L 107 237 L 106 236 L 106 237 L 104 239 L 103 239 L 103 241 L 101 242 L 102 244 L 100 246 L 100 248 L 99 249 L 100 251 L 100 256 L 99 257 L 101 258 L 102 260 L 104 261 L 108 259 L 108 258 L 110 256 L 112 252 L 111 250 L 111 247 L 112 246 L 112 244 L 111 242 L 112 240 Z M 402 228 L 400 227 L 399 225 L 397 227 L 396 227 L 393 233 L 391 235 L 392 237 L 389 241 L 385 237 L 383 237 L 382 235 L 380 235 L 379 233 L 374 233 L 374 234 L 372 235 L 372 236 L 375 239 L 374 240 L 375 240 L 377 242 L 377 243 L 380 245 L 381 247 L 382 247 L 386 251 L 388 251 L 389 252 L 392 252 L 392 251 L 393 250 L 394 251 L 394 250 L 396 249 L 397 246 L 399 245 L 399 243 L 401 240 L 401 229 Z M 380 208 L 380 209 L 378 210 L 377 212 L 377 218 L 378 219 L 378 221 L 377 222 L 379 223 L 378 224 L 380 225 L 379 226 L 380 226 L 384 231 L 388 233 L 391 229 L 391 224 L 389 222 L 389 219 L 390 218 L 387 216 L 388 215 L 386 213 L 386 212 L 384 211 L 381 208 Z M 233 55 L 231 57 L 230 56 L 228 60 L 226 61 L 227 62 L 224 66 L 225 67 L 225 82 L 223 83 L 222 85 L 219 85 L 215 89 L 215 90 L 213 91 L 213 93 L 212 94 L 213 95 L 212 96 L 212 99 L 215 99 L 216 100 L 218 99 L 221 99 L 222 101 L 225 102 L 227 104 L 226 107 L 228 108 L 227 109 L 228 111 L 228 115 L 226 117 L 225 116 L 223 117 L 222 115 L 220 115 L 218 114 L 216 115 L 212 119 L 210 123 L 206 123 L 205 121 L 203 121 L 202 120 L 202 118 L 199 116 L 199 108 L 201 107 L 203 104 L 205 105 L 209 101 L 207 100 L 208 99 L 207 99 L 206 97 L 202 94 L 201 95 L 200 95 L 198 93 L 193 93 L 192 94 L 190 91 L 191 90 L 189 89 L 190 88 L 189 86 L 187 85 L 188 84 L 186 82 L 186 81 L 180 75 L 176 73 L 175 74 L 175 79 L 174 80 L 175 82 L 177 83 L 176 85 L 178 86 L 180 90 L 179 91 L 180 91 L 182 93 L 181 95 L 183 96 L 184 98 L 183 99 L 185 100 L 185 102 L 187 104 L 187 106 L 188 107 L 187 109 L 190 112 L 189 113 L 192 116 L 191 117 L 193 119 L 193 121 L 195 122 L 194 123 L 200 130 L 200 133 L 199 135 L 202 138 L 201 139 L 202 140 L 202 146 L 201 147 L 199 147 L 198 149 L 195 150 L 193 152 L 192 151 L 191 153 L 190 152 L 184 157 L 182 158 L 180 158 L 179 160 L 178 159 L 176 162 L 175 161 L 173 162 L 171 165 L 170 164 L 167 167 L 166 166 L 161 170 L 160 169 L 157 172 L 156 171 L 152 173 L 151 175 L 149 175 L 148 174 L 147 175 L 145 175 L 143 177 L 128 177 L 129 178 L 128 181 L 130 182 L 129 184 L 132 186 L 131 187 L 133 188 L 132 189 L 134 191 L 133 192 L 135 193 L 135 195 L 134 196 L 135 198 L 137 199 L 137 202 L 136 204 L 138 205 L 137 206 L 138 208 L 137 209 L 139 210 L 138 211 L 138 213 L 140 215 L 140 217 L 139 219 L 140 220 L 140 223 L 142 225 L 142 228 L 141 229 L 142 231 L 142 234 L 143 235 L 142 237 L 142 239 L 144 241 L 143 242 L 143 246 L 145 248 L 145 254 L 144 255 L 144 257 L 145 258 L 145 265 L 147 266 L 147 272 L 146 273 L 146 275 L 147 276 L 147 279 L 148 280 L 147 285 L 149 287 L 148 289 L 148 292 L 150 295 L 150 300 L 149 301 L 149 303 L 152 307 L 151 308 L 154 311 L 153 312 L 154 312 L 155 314 L 157 315 L 157 317 L 161 320 L 161 322 L 163 324 L 164 324 L 165 326 L 168 329 L 169 329 L 172 333 L 173 332 L 175 335 L 176 334 L 178 337 L 180 338 L 181 337 L 183 340 L 184 339 L 186 342 L 188 342 L 189 344 L 191 344 L 192 346 L 196 348 L 197 347 L 199 350 L 201 350 L 203 352 L 205 352 L 206 353 L 207 352 L 209 355 L 211 354 L 212 356 L 216 358 L 217 357 L 218 359 L 220 360 L 221 359 L 222 361 L 224 361 L 226 363 L 228 362 L 229 364 L 231 365 L 232 364 L 235 367 L 236 366 L 238 368 L 240 367 L 244 370 L 245 369 L 246 369 L 248 371 L 249 370 L 250 372 L 252 371 L 254 371 L 256 372 L 259 369 L 260 370 L 262 369 L 263 367 L 264 368 L 266 367 L 268 364 L 269 365 L 271 363 L 274 362 L 276 360 L 282 357 L 286 353 L 287 353 L 290 350 L 291 350 L 293 347 L 294 348 L 296 346 L 297 346 L 300 342 L 301 343 L 304 340 L 308 338 L 310 336 L 310 335 L 312 334 L 313 332 L 315 332 L 315 331 L 317 330 L 327 320 L 327 318 L 328 317 L 329 318 L 330 316 L 332 315 L 332 313 L 336 310 L 337 307 L 340 304 L 339 303 L 341 302 L 342 300 L 342 297 L 345 295 L 344 293 L 347 289 L 346 288 L 347 287 L 346 285 L 347 284 L 347 280 L 346 279 L 347 278 L 347 269 L 346 268 L 346 263 L 347 262 L 347 257 L 345 254 L 345 252 L 346 251 L 346 204 L 345 203 L 347 199 L 347 197 L 346 196 L 346 193 L 347 192 L 347 190 L 346 189 L 348 187 L 348 184 L 347 183 L 347 178 L 349 176 L 348 174 L 350 172 L 349 170 L 349 168 L 351 166 L 351 163 L 352 162 L 351 161 L 352 160 L 352 157 L 348 155 L 346 155 L 344 157 L 325 157 L 321 154 L 318 155 L 317 153 L 314 153 L 311 151 L 309 152 L 305 149 L 303 150 L 302 148 L 300 147 L 299 148 L 296 146 L 295 147 L 291 144 L 290 145 L 288 145 L 287 143 L 286 144 L 285 142 L 282 142 L 281 141 L 278 142 L 272 137 L 272 133 L 275 129 L 274 127 L 275 125 L 274 122 L 275 121 L 277 121 L 280 117 L 279 115 L 281 112 L 281 108 L 283 106 L 282 104 L 282 102 L 284 100 L 285 98 L 284 96 L 287 92 L 286 91 L 288 88 L 287 87 L 287 86 L 289 84 L 288 83 L 290 82 L 289 79 L 291 77 L 291 73 L 293 70 L 292 68 L 292 63 L 290 63 L 288 65 L 287 65 L 287 66 L 285 67 L 284 69 L 283 69 L 283 71 L 281 72 L 282 73 L 280 74 L 279 76 L 280 77 L 280 79 L 278 80 L 278 82 L 277 83 L 278 84 L 277 85 L 274 84 L 274 85 L 273 86 L 272 85 L 271 87 L 269 86 L 267 88 L 267 89 L 264 91 L 265 92 L 263 94 L 264 96 L 266 98 L 268 97 L 269 99 L 270 99 L 273 103 L 273 107 L 272 108 L 272 110 L 270 114 L 268 115 L 268 119 L 266 120 L 261 116 L 260 117 L 259 115 L 255 112 L 253 113 L 250 113 L 249 115 L 247 114 L 245 116 L 244 115 L 244 111 L 245 110 L 245 100 L 250 96 L 251 97 L 255 94 L 256 95 L 258 92 L 256 89 L 256 87 L 255 87 L 254 85 L 253 85 L 251 82 L 250 83 L 249 82 L 247 82 L 246 83 L 244 81 L 243 82 L 242 81 L 242 70 L 243 69 L 241 67 L 241 65 L 240 63 L 237 61 L 238 60 L 236 58 L 236 57 L 234 55 Z M 317 328 L 318 327 L 319 328 L 318 329 Z M 315 316 L 316 315 L 317 316 L 316 317 Z M 241 144 L 247 144 L 248 145 L 253 145 L 254 146 L 259 146 L 260 145 L 262 147 L 263 146 L 266 148 L 269 147 L 272 150 L 275 149 L 279 152 L 281 151 L 285 153 L 287 152 L 290 155 L 292 155 L 295 157 L 296 156 L 299 158 L 301 157 L 305 160 L 307 159 L 309 161 L 311 161 L 314 163 L 316 162 L 321 165 L 322 164 L 324 164 L 326 166 L 329 166 L 330 165 L 333 167 L 339 167 L 340 168 L 340 170 L 338 172 L 338 174 L 339 175 L 337 177 L 338 179 L 338 181 L 337 182 L 337 189 L 338 190 L 338 192 L 336 196 L 336 204 L 337 205 L 337 208 L 336 209 L 336 229 L 337 230 L 337 237 L 336 238 L 336 244 L 338 247 L 338 250 L 337 251 L 337 276 L 338 277 L 338 284 L 336 287 L 337 288 L 334 291 L 335 292 L 333 294 L 332 296 L 332 298 L 330 299 L 327 303 L 327 304 L 325 306 L 324 306 L 325 307 L 323 308 L 321 310 L 321 311 L 319 313 L 318 313 L 314 317 L 313 319 L 312 319 L 312 321 L 308 324 L 307 324 L 307 325 L 305 326 L 302 330 L 299 331 L 296 334 L 295 334 L 293 337 L 292 336 L 289 339 L 288 339 L 286 342 L 284 342 L 282 344 L 281 344 L 279 347 L 277 347 L 275 348 L 270 352 L 267 353 L 264 356 L 259 358 L 258 360 L 256 359 L 252 362 L 248 359 L 245 360 L 244 358 L 242 358 L 238 356 L 237 357 L 234 354 L 232 355 L 231 353 L 227 351 L 225 352 L 224 350 L 223 351 L 222 349 L 221 350 L 220 348 L 218 347 L 216 347 L 215 346 L 213 347 L 212 345 L 207 343 L 205 341 L 203 341 L 198 337 L 196 336 L 195 337 L 193 334 L 192 335 L 190 332 L 186 330 L 176 321 L 175 322 L 172 318 L 172 317 L 171 317 L 167 313 L 167 312 L 164 310 L 165 309 L 162 307 L 163 305 L 161 303 L 162 302 L 160 301 L 161 299 L 159 298 L 159 295 L 160 294 L 160 292 L 158 290 L 159 289 L 159 287 L 157 285 L 157 281 L 158 280 L 156 276 L 157 274 L 157 271 L 156 270 L 156 267 L 157 266 L 157 264 L 155 262 L 156 260 L 156 257 L 154 255 L 154 248 L 155 247 L 155 245 L 153 243 L 154 241 L 152 239 L 152 236 L 153 235 L 153 233 L 152 232 L 152 229 L 151 228 L 152 226 L 150 224 L 151 222 L 149 220 L 149 216 L 150 214 L 148 213 L 149 211 L 147 209 L 147 206 L 148 205 L 146 201 L 147 200 L 146 199 L 146 197 L 144 195 L 144 193 L 145 192 L 144 190 L 144 187 L 147 184 L 149 185 L 150 184 L 153 184 L 155 182 L 157 183 L 159 181 L 162 181 L 164 179 L 165 179 L 166 177 L 167 178 L 168 176 L 170 176 L 172 174 L 173 175 L 175 172 L 176 173 L 177 171 L 179 171 L 181 169 L 183 169 L 184 167 L 185 168 L 187 166 L 189 166 L 190 164 L 191 165 L 193 162 L 194 163 L 196 162 L 199 159 L 200 160 L 202 157 L 203 158 L 208 154 L 209 155 L 210 153 L 213 153 L 217 151 L 219 149 L 221 150 L 225 147 L 227 147 L 229 148 L 232 146 L 234 147 L 235 145 L 236 146 L 238 146 Z M 246 159 L 245 160 L 242 160 L 241 161 L 239 160 L 236 160 L 234 162 L 232 162 L 231 161 L 228 163 L 227 162 L 223 165 L 221 164 L 219 165 L 218 167 L 216 166 L 214 168 L 213 167 L 213 168 L 211 170 L 208 170 L 207 172 L 206 171 L 203 172 L 197 177 L 196 176 L 194 178 L 191 179 L 188 182 L 186 182 L 184 183 L 183 185 L 182 184 L 180 186 L 175 188 L 174 190 L 172 189 L 169 192 L 167 191 L 163 193 L 161 192 L 159 194 L 158 193 L 157 194 L 157 200 L 156 202 L 158 204 L 157 205 L 158 207 L 158 209 L 160 210 L 160 212 L 159 214 L 161 215 L 160 216 L 160 217 L 162 219 L 162 222 L 161 224 L 163 225 L 162 226 L 163 227 L 162 229 L 163 230 L 163 233 L 165 235 L 164 242 L 166 243 L 165 244 L 165 247 L 167 248 L 167 253 L 166 254 L 167 256 L 167 261 L 168 262 L 168 264 L 167 265 L 167 268 L 169 270 L 169 272 L 168 273 L 168 278 L 170 280 L 170 286 L 169 287 L 169 290 L 170 291 L 170 293 L 172 294 L 171 296 L 173 298 L 175 302 L 177 303 L 176 304 L 178 306 L 178 307 L 180 309 L 181 309 L 182 311 L 188 317 L 189 317 L 192 320 L 193 319 L 195 322 L 197 323 L 199 323 L 201 325 L 202 324 L 203 326 L 204 326 L 206 328 L 207 327 L 210 330 L 211 329 L 212 331 L 214 331 L 216 333 L 217 332 L 218 334 L 220 335 L 221 334 L 222 336 L 226 338 L 227 337 L 229 340 L 231 339 L 232 341 L 234 342 L 235 341 L 237 343 L 239 342 L 243 345 L 245 344 L 247 346 L 248 345 L 250 347 L 251 346 L 252 347 L 254 346 L 255 347 L 257 346 L 258 344 L 259 345 L 261 343 L 267 340 L 267 339 L 271 337 L 273 334 L 274 335 L 276 333 L 280 331 L 281 329 L 286 327 L 288 324 L 291 323 L 293 321 L 294 321 L 295 319 L 298 318 L 302 314 L 303 312 L 305 312 L 305 311 L 307 310 L 309 308 L 309 307 L 312 305 L 312 303 L 316 300 L 318 295 L 320 294 L 319 293 L 322 291 L 323 289 L 322 288 L 325 285 L 324 282 L 326 280 L 325 278 L 327 276 L 327 266 L 325 262 L 325 260 L 326 259 L 326 253 L 324 251 L 324 206 L 326 202 L 326 198 L 325 197 L 327 195 L 327 192 L 326 191 L 327 189 L 327 185 L 326 184 L 328 182 L 328 179 L 327 179 L 325 177 L 314 177 L 313 178 L 312 176 L 310 177 L 308 177 L 307 175 L 305 174 L 302 175 L 301 173 L 299 173 L 295 171 L 293 172 L 290 169 L 288 170 L 286 168 L 285 169 L 284 167 L 283 168 L 280 166 L 277 167 L 273 164 L 272 165 L 270 165 L 269 163 L 267 163 L 266 162 L 265 163 L 262 161 L 260 162 L 258 162 L 255 160 L 253 160 L 251 161 L 250 160 L 248 160 Z M 307 308 L 308 307 L 309 308 L 308 309 Z M 293 254 L 294 253 L 295 254 L 294 255 Z M 236 227 L 237 226 L 238 227 L 237 228 Z M 220 204 L 222 205 L 225 202 L 227 202 L 228 203 L 230 202 L 234 202 L 235 203 L 237 202 L 239 202 L 243 205 L 243 216 L 244 217 L 244 219 L 242 220 L 242 222 L 243 224 L 240 227 L 238 227 L 237 226 L 237 224 L 235 221 L 235 216 L 236 214 L 233 211 L 233 210 L 230 210 L 229 209 L 227 210 L 225 210 L 224 209 L 220 212 L 219 212 L 217 216 L 214 219 L 215 220 L 215 225 L 214 226 L 215 226 L 217 228 L 216 229 L 218 231 L 218 232 L 222 234 L 223 236 L 228 241 L 229 241 L 231 243 L 231 245 L 235 248 L 234 249 L 236 250 L 237 252 L 239 252 L 240 250 L 242 249 L 241 248 L 243 247 L 244 245 L 245 245 L 244 244 L 246 243 L 249 239 L 250 239 L 252 237 L 254 237 L 257 234 L 259 235 L 261 234 L 262 232 L 264 232 L 265 233 L 267 232 L 269 232 L 270 231 L 272 232 L 274 232 L 277 230 L 278 231 L 283 231 L 287 229 L 290 229 L 291 230 L 293 230 L 294 228 L 296 229 L 298 227 L 301 227 L 302 228 L 304 228 L 306 227 L 307 228 L 307 231 L 308 232 L 306 234 L 307 236 L 307 238 L 305 240 L 305 242 L 303 245 L 300 245 L 299 244 L 299 238 L 297 236 L 296 237 L 288 237 L 287 236 L 284 236 L 278 239 L 278 241 L 277 242 L 278 243 L 276 245 L 277 247 L 277 251 L 275 253 L 276 255 L 274 256 L 274 257 L 276 259 L 276 260 L 277 259 L 282 259 L 284 260 L 286 258 L 287 258 L 288 256 L 290 256 L 293 254 L 294 255 L 294 262 L 295 263 L 295 267 L 293 269 L 292 272 L 290 273 L 287 270 L 288 269 L 287 269 L 286 267 L 284 266 L 282 267 L 278 267 L 277 266 L 274 268 L 273 271 L 271 273 L 272 275 L 272 277 L 270 279 L 271 281 L 269 282 L 269 284 L 270 286 L 268 288 L 269 289 L 267 291 L 268 292 L 268 296 L 269 298 L 270 297 L 276 297 L 277 298 L 278 301 L 276 304 L 274 303 L 267 303 L 265 305 L 261 305 L 260 304 L 258 304 L 256 306 L 255 305 L 252 305 L 249 307 L 247 307 L 246 306 L 246 303 L 250 299 L 251 299 L 251 298 L 254 295 L 254 293 L 256 292 L 256 290 L 257 289 L 256 288 L 258 285 L 257 282 L 259 280 L 259 278 L 260 277 L 259 272 L 261 270 L 260 268 L 262 266 L 261 265 L 262 263 L 261 262 L 263 261 L 262 256 L 264 254 L 263 253 L 265 252 L 265 249 L 264 248 L 264 241 L 262 241 L 261 240 L 260 240 L 258 242 L 255 242 L 253 244 L 252 244 L 250 246 L 250 247 L 247 249 L 247 251 L 245 253 L 246 254 L 244 255 L 245 257 L 245 262 L 244 263 L 244 265 L 245 266 L 244 268 L 247 270 L 246 272 L 248 274 L 248 277 L 246 278 L 245 280 L 244 279 L 242 280 L 241 278 L 235 272 L 233 272 L 231 273 L 231 274 L 224 280 L 223 279 L 223 280 L 221 282 L 220 281 L 216 284 L 214 284 L 212 285 L 210 287 L 208 287 L 207 286 L 205 287 L 201 287 L 200 286 L 198 287 L 196 287 L 194 285 L 191 284 L 184 277 L 184 273 L 185 272 L 184 270 L 186 269 L 189 266 L 195 270 L 195 272 L 197 273 L 197 275 L 198 277 L 199 277 L 202 280 L 203 279 L 209 279 L 211 280 L 215 278 L 221 273 L 223 268 L 225 267 L 224 265 L 224 262 L 225 261 L 225 259 L 222 256 L 223 255 L 217 248 L 216 248 L 212 244 L 211 245 L 209 243 L 210 242 L 208 242 L 207 241 L 208 240 L 206 238 L 206 237 L 204 236 L 205 235 L 202 231 L 202 226 L 204 224 L 203 223 L 205 222 L 204 221 L 204 220 L 206 219 L 205 218 L 208 215 L 207 214 L 209 213 L 214 208 L 219 206 Z M 203 128 L 204 127 L 205 128 L 204 129 Z M 271 122 L 272 121 L 274 122 L 273 123 Z M 267 121 L 268 120 L 269 121 L 268 122 Z M 228 118 L 229 117 L 237 117 L 238 118 L 237 119 L 229 119 Z M 179 76 L 180 75 L 181 76 L 180 77 Z M 234 67 L 235 68 L 234 70 L 236 71 L 235 73 L 237 75 L 237 76 L 233 80 L 231 76 L 231 70 Z M 232 67 L 233 66 L 234 67 L 233 68 Z"
        fill="#FDE486"
        fill-rule="evenodd"
        clip-rule="evenodd"/>
</svg>
